<?xml version="1.0" encoding="utf-8"?>
<!-- Generator: Adobe Illustrator 26.0.2, SVG Export Plug-In . SVG Version: 6.00 Build 0)  -->
<svg version="1.1" id="Ebene_1" xmlns="http://www.w3.org/2000/svg" xmlns:xlink="http://www.w3.org/1999/xlink" x="0px" y="0px"
	 viewBox="0 0 595.3 178.9" style="enable-background:new 0 0 595.3 178.9;" xml:space="preserve">
<style type="text/css">
	.st0{fill:#004380;}
	.st1{fill:#FFFFFF;}
	.st2{fill:#34393B;}
	.st3{fill:none;stroke:#34393B;stroke-width:2;stroke-miterlimit:10;}
</style>
<g>
	<path class="st0" d="M349.2,112.1c28.1,0,50.9-23,50.9-51.3c0-28.3-22.8-51.3-50.9-51.3c-28.1,0-50.9,23-50.9,51.3
		C298.3,89.2,321.1,112.1,349.2,112.1 M65.9,52.5c2.4-3.7,5.2-6.5,8.5-8.4c3.3-1.9,6.9-2.9,10.8-2.9c6.8,0,11.9,2.1,15.5,6.3
		c3.5,4.2,5.3,10.3,5.3,18.4v36.2h-19v-31c0-0.5,0.1-0.9,0.1-1.4c0-0.5,0-1.2,0-2.1c0-4.2-0.6-7.3-1.8-9.2c-1.2-1.9-3.2-2.8-6-2.8
		c-3.6,0-6.3,1.5-8.3,4.5c-1.9,3-3,7.3-3,12.9v29.2h-19v-31c0-6.6-0.6-10.8-1.7-12.7c-1.1-1.9-3.1-2.8-6-2.8c-3.6,0-6.4,1.5-8.4,4.5
		c-2,3-2.9,7.3-2.9,12.8v29.2h-19V42.7h19v8.7c2.3-3.4,5-5.9,8-7.6c3-1.7,6.3-2.5,9.9-2.5c4.1,0,7.7,1,10.8,3
		C61.9,46.2,64.3,49,65.9,52.5 M124.7,42.7h18.8v59.4h-18.8V42.7L124.7,42.7z M124.7,19.5h18.8V35h-18.8V19.5L124.7,19.5z
		 M183.3,25.8v16.9h19.4v13.6h-19.4v25.2c0,2.8,0.5,4.6,1.6,5.6c1.1,1,3.2,1.5,6.5,1.5h9.7v13.6H185c-7.4,0-12.7-1.6-15.8-4.7
		c-3.1-3.1-4.7-8.4-4.7-15.9V56.2h-9.4V42.7h9.4V25.8H183.3L183.3,25.8z M216.2,22.9h22.6l28.6,54.3V22.9h19.2v79.2H264l-28.6-54.3
		v54.3h-19.2V22.9L216.2,22.9z M441.4,58c4.2,0,7.3-0.8,9.1-2.4c1.8-1.6,2.8-4.2,2.8-7.9c0-3.6-0.9-6.2-2.8-7.7
		c-1.8-1.6-4.9-2.3-9.1-2.3h-8.5V58H441.4L441.4,58z M432.9,72.1v30h-20.3V22.9h31c10.4,0,17.9,1.8,22.8,5.3c4.8,3.5,7.2,9,7.2,16.6
		c0,5.2-1.3,9.5-3.8,12.9c-2.5,3.4-6.3,5.8-11.3,7.4c2.8,0.6,5.3,2.1,7.5,4.3c2.2,2.2,4.4,5.7,6.7,10.2l11,22.5H462l-9.6-19.7
		c-1.9-4-3.9-6.7-5.9-8.1c-2-1.4-4.6-2.2-7.9-2.2H432.9L432.9,72.1z M498.9,22.9h25.8l17.9,42.4l18-42.4h25.7v79.2h-19.2V44.1
		l-18.1,42.7h-12.8l-18.1-42.7v57.9h-19.2V22.9L498.9,22.9z"/>
	<polygon class="st1" points="382.9,49.5 360.4,49.5 360.4,26.9 338,26.9 338,49.5 315.6,49.5 315.6,72.1 338,72.1 338,94.7 
		360.4,94.7 360.4,72.1 382.9,72.1 382.9,49.5 	"/>
</g>
<g>
	<path class="st2" d="M51.1,138.7v2.2h-1.1h-8.4v6.2h5.8h1.1v2.2h-1.1h-5.8v7.3v1.1h-2.2v-1.1v-7.3v-2.2v-7.3v-1.1h1.1h9.5H51.1z"/>
	<path class="st2" d="M59.6,138.7h2.2v1.1v16.8v1.1h-2.2v-1.1v-16.8V138.7z"/>
	<path class="st2" d="M74.6,157.7h-2.2v-1.1v-16.8v-1.1H74l0.3,0.5l9.7,13.9l0-13.2v-1.1h2.2v1.1l0,16.8v1.1h-1.7l-0.3-0.5
		l-9.7-13.9v13.2V157.7z"/>
	<path class="st2" d="M97.1,157.7h-2.4l0.7-1.6l7.3-16.8l0.3-0.7h1.5l0.3,0.7l7.3,16.8l0.7,1.6h-2.4l-0.3-0.7l-6.2-14.4L97.5,157
		L97.1,157.7z"/>
	<path class="st2" d="M123.3,157.7h-2.2v-1.1v-16.8v-1.1h1.7l0.3,0.5l9.7,13.9l0-13.2v-1.1h2.2v1.1l0,16.8v1.1h-1.7l-0.3-0.5
		l-9.7-13.9v13.2V157.7z"/>
	<path class="st2" d="M144.5,140.9v-2.2h1.1h10.2h1.1h0.9l-1.1,1.7l-9.6,15.1h9.2h1.1v2.2h-1.1h-11.2H144h-0.9l1.1-1.7l9.6-15.1
		h-8.2H144.5z"/>
	<path class="st2" d="M166.4,148.2l0-8.4v-1.1h1.1l7.1,0c1.4,0,2.7,0.4,3.8,1.3c1.3,1.1,2,2.4,2,4c0,1.3-0.4,2.4-1.3,3.4
		c-1.1,1.3-2.6,1.9-4.4,1.9h-6v7.3v1.1h-2.2v-1.1v-7.3V148.2z M174.7,147.1c0.7,0,1.3-0.2,1.9-0.5c1-0.6,1.6-1.4,1.6-2.5
		c0-0.6-0.2-1.2-0.6-1.8c-0.7-0.9-1.7-1.3-2.9-1.3h-6v6.2L174.7,147.1z"/>
	<path class="st2" d="M189.9,138.7h2.2v1.1v15.7h7.8h1.1v2.2H200h-9h-1.1v-1.1v-16.8V138.7z"/>
	<path class="st2" d="M209.7,157.7h-2.4l0.7-1.6l7.3-16.8l0.3-0.7h1.5l0.3,0.7l7.3,16.8l0.7,1.6h-2.4l-0.3-0.7l-6.2-14.4L210,157
		L209.7,157.7z"/>
	<path class="st2" d="M235.9,157.7h-2.2v-1.1v-16.8v-1.1h1.7l0.3,0.5l9.7,13.9l0-13.2v-1.1h2.2v1.1l0,16.8v1.1h-1.7l-0.3-0.5
		l-9.7-13.9v13.2V157.7z"/>
	<path class="st2" d="M258.3,138.7h2.3l0,1.1l0,11.5c0,0.9,0.3,1.7,0.9,2.5c0.9,1.1,2.1,1.6,3.6,1.6c1,0,1.9-0.3,2.7-0.9
		c1.2-0.8,1.7-1.9,1.7-3.2v-11.6l0-1.1h2.3l0,1.1l0,11.5c0,1.6-0.6,3-1.7,4.2c-1.3,1.4-3,2.2-5,2.2c-1.8,0-3.3-0.6-4.6-1.7
		c-1.4-1.3-2.1-2.8-2.1-4.6v-11.6L258.3,138.7z"/>
	<path class="st2" d="M284.6,157.7h-2.2v-1.1v-16.8v-1.1h1.7l0.3,0.5l9.7,13.9l0-13.2v-1.1h2.2v1.1l0,16.8v1.1h-1.7l-0.3-0.5
		l-9.7-13.9v13.2V157.7z"/>
	<path class="st2" d="M314.9,147.1h8.3v1.1c0,2.7-0.9,5-2.6,6.9c-1.6,1.8-3.5,2.6-5.8,2.6c-2.2,0-4.2-0.9-5.9-2.7
		c-1.7-1.9-2.6-4.2-2.6-6.9c0-2.7,0.9-5,2.6-6.9c1.6-1.8,3.6-2.6,5.8-2.6c1.3,0,2.5,0.3,3.8,0.9c1.6,0.8,2.7,1.9,3.4,3.2l-2,1
		c-0.2-0.4-0.6-0.9-1-1.3c-1.2-1.1-2.6-1.6-4.1-1.6c-1.6,0-3,0.6-4.1,1.9c-1.4,1.4-2,3.2-2,5.4c0,1.9,0.5,3.5,1.6,4.9
		c1.2,1.6,2.8,2.4,4.6,2.4c1.7,0,3.1-0.7,4.4-2.1c1.2-1.3,1.7-2.6,1.7-4.1h-6.1V147.1z"/>
	<path class="st2" d="M386.2,157.7v-1.1v-16.8v-1.1h1.1h6.2h0.1c2.1,0.2,3.8,1.2,5.2,2.9c1.5,1.9,2.2,4.1,2,6.6
		c0.2,2.5-0.4,4.6-1.9,6.6c-1.4,1.8-3.2,2.8-5.3,3h-0.1h-0.1h-6.2H386.2z M393.4,155.5c1.4-0.1,2.6-0.8,3.6-2
		c1.2-1.5,1.7-3.2,1.5-5.3v-0.1c0.1-1.7-0.2-3.3-1.1-4.6c-1-1.5-2.3-2.4-4-2.5h-5v14.6H393.4z"/>
	<path class="st2" d="M410.5,138.7h2.2v1.1v16.8v1.1h-2.2v-1.1v-16.8V138.7z"/>
	<path class="st2" d="M425.4,157.7h-2.2v-1.1v-16.8v-1.1h1.7l0.3,0.5l9.7,13.9l0-13.2v-1.1h2.2v1.1l0,16.8v1.1h-1.7l-0.3-0.5
		l-9.7-13.9v13.2V157.7z"/>
	<path class="st2" d="M463.8,140.3v-2.2h1.1h10.2h0.8l-1,1.7c-0.7,1.2-1.3,2.3-1.8,3.3c-2.4,4.7-4.1,9.2-4.9,13.7l-0.2,0.9h-2.3
		l0.3-1.3c0-0.2,0.1-0.4,0.1-0.6c1-5.1,2.9-10.2,5.9-15.4h-7.1H463.8z"/>
	<path class="st2" d="M481.8,140.3v-2.2h1.1h10.2h0.8l-1,1.7c-0.7,1.2-1.3,2.3-1.8,3.3c-2.4,4.7-4.1,9.2-4.9,13.7l-0.2,0.9h-2.3
		l0.3-1.3c0-0.2,0.1-0.4,0.1-0.6c1-5.1,2.9-10.2,5.9-15.4h-7.1H481.8z"/>
	<path class="st2" d="M502.6,144.7h-2.2v-1.1c0-1.3,0.4-2.4,1.3-3.4c1.2-1.3,2.7-2,4.6-2c1.5,0,2.8,0.4,3.9,1.3c1.3,1.1,2,2.5,2,4.1
		c0,1.5-0.6,2.9-1.7,4.3c-0.8,1-2.2,2.2-4.3,3.7c-0.7,0.5-1.2,0.8-1.5,1.1c-1.4,1.1-2.1,2-2.1,2.8h8.5h1.1v2.2h-1.1h-10.7v-1.1
		c0-1.3,0.5-2.6,1.5-3.9c0.7-0.9,2-2.1,3.8-3.6c0.8-0.7,1.5-1.2,1.8-1.5c1.6-1.5,2.4-2.8,2.4-4c0-0.7-0.2-1.3-0.7-1.8
		c-0.7-0.9-1.7-1.4-3-1.4c-0.7,0-1.4,0.2-2.1,0.6c-1,0.6-1.6,1.5-1.6,2.7V144.7z"/>
	<path class="st2" d="M521.3,140.3v-2.2h1.1h7.3h1.1h0.8l-1,1.7l-3.1,5.2c0.7,0,1.5,0.5,2.3,1.4c1.3,1.4,1.9,3,1.9,4.9
		c0,1.6-0.5,3.1-1.6,4.3c-1.2,1.4-2.8,2.1-4.6,2.1c-1.3,0-2.4-0.3-3.4-0.9c-1.3-0.8-2.1-2-2.4-3.4l-0.2-1.3h2.3l0.1,0.9
		c0.1,0.4,0.2,0.8,0.5,1.1c0.7,0.9,1.7,1.4,3.1,1.4c0.9,0,1.7-0.3,2.4-0.9c1-0.9,1.5-2,1.5-3.4c0-0.9-0.3-1.7-0.8-2.4
		c-0.8-1.1-1.8-1.7-3.2-1.7h-1.1h-0.8l1-1.7l3.1-5.2h-5.4H521.3z"/>
	<path class="st2" d="M541.7,140.6c1.1-1.6,2.5-2.5,3.9-2.5c1.3,0,2.5,0.7,3.6,2.1c1.5,1.9,2.2,4.5,2.2,7.7c0,3-0.7,5.5-2,7.4
		c-1.1,1.6-2.4,2.4-3.9,2.4c-1.3,0-2.6-0.7-3.7-2.1c-1.5-1.9-2.3-4.5-2.3-7.8C539.7,144.9,540.3,142.5,541.7,140.6z M542.7,152.7
		c0.7,1.9,1.7,2.8,2.9,2.8c0.9,0,1.6-0.5,2.3-1.6c0.9-1.5,1.3-3.5,1.3-6c0-1.8-0.3-3.4-0.8-4.8c-0.7-1.8-1.6-2.8-2.8-2.8
		c-0.9,0-1.7,0.6-2.4,1.6c-0.9,1.5-1.4,3.5-1.4,5.9C541.9,149.7,542.2,151.2,542.7,152.7z"/>
</g>
<line class="st3" x1="350.9" y1="138.1" x2="350.9" y2="157.2"/>
</svg>
